<svg xmlns="http://www.w3.org/2000/svg" xmlns:xlink="http://www.w3.org/1999/xlink" width="65" zoomAndPan="magnify" viewBox="0 0 48.75 71.249999" height="95" preserveAspectRatio="xMidYMid meet" version="1.2"><defs><clipPath id="3aa9c94ca4"><path d="M 0.128906 0 L 47.722656 0 L 47.722656 70.507812 L 0.128906 70.507812 Z M 0.128906 0 "/></clipPath></defs><g id="735729143c"><g clip-rule="nonzero" clip-path="url(#3aa9c94ca4)"><path style=" stroke:none;fill-rule:nonzero;fill:#ffb91e;fill-opacity:1;" d="M 6.390625 9.441406 C 7.300781 10.492188 13.652344 19.214844 14.371094 18.582031 C 15.003906 18 15.03125 16.59375 14.507812 15.183594 C 14.285156 14.605469 12.382812 11.238281 12.960938 10.960938 C 15.804688 13.527344 18.207031 16.703125 20.140625 20.015625 C 21.742188 22.75 23.976562 26.394531 24.226562 29.652344 C 18.511719 29.15625 12.382812 31.253906 8.875 36.996094 C 7.496094 39.261719 4.789062 43.925781 8.738281 49.585938 C 11.664062 53.757812 17.957031 55.441406 21.824219 52.457031 C 24.28125 50.582031 25.882812 47.542969 26.933594 44.394531 C 27.484375 42.765625 27.648438 40.75 27.898438 39.066406 C 28.035156 38.15625 28.175781 37.21875 28.285156 36.308594 C 28.339844 36.277344 30.21875 36.914062 30.328125 36.941406 C 35.378906 39.179688 39.109375 44.09375 41.371094 48.871094 C 43.496094 53.398438 44.546875 58.0625 43.195312 63.089844 C 42.863281 64.332031 40.875 70.765625 42.035156 70.347656 C 45.125 69.273438 46.367188 65.046875 46.8125 62.011719 C 47.886719 54.859375 46.699219 48.398438 42.890625 42.160156 C 41.09375 39.234375 38.96875 36.832031 36.292969 34.707031 C 34.9375 33.628906 33.449219 32.71875 31.875 31.945312 C 31.460938 31.75 28.203125 30.703125 28.175781 30.480469 C 26.875 24.019531 22.789062 15.929688 20.222656 12.839844 C 19.699219 12.203125 17.128906 9.554688 17.296875 9.359375 C 17.65625 8.890625 23.148438 9.222656 23.730469 8.007812 C 24.832031 5.605469 15.085938 3.203125 13.429688 2.707031 C 9.566406 1.519531 8.738281 1.683594 4.816406 0.746094 C 2.46875 0.164062 1.449219 0 0.757812 0.386719 C -0.292969 0.9375 5.3125 8.226562 6.390625 9.441406 Z M 25.605469 35.421875 C 25.882812 35.421875 25.414062 40.171875 25.304688 40.78125 C 24.859375 42.988281 23.757812 45.140625 22.597656 47.046875 C 20.609375 50.332031 15.003906 52.402344 11.773438 48.703125 C 10.0625 46.742188 9.566406 44.617188 9.8125 42.050781 C 10.117188 38.984375 11.914062 36.664062 14.453125 35.3125 C 18.125 33.378906 21.796875 33.847656 25.605469 35.421875 C 25.578125 35.421875 25.386719 35.3125 25.605469 35.421875 Z M 25.605469 35.421875 "/></g></g></svg>