<svg xmlns="http://www.w3.org/2000/svg" xmlns:xlink="http://www.w3.org/1999/xlink" width="134" zoomAndPan="magnify" viewBox="0 0 100.5 30.000001" height="40" preserveAspectRatio="xMidYMid meet" version="1.2"><defs><clipPath id="54a14c1159"><path d="M 2 0 L 98.636719 0 L 98.636719 29.03125 L 2 29.03125 Z M 2 0 "/></clipPath><clipPath id="9e57acc580"><path d="M 1.378906 9.960938 L 97.320312 -5.988281 L 101.84375 21.21875 L 5.902344 37.167969 Z M 1.378906 9.960938 "/></clipPath><clipPath id="5b8880246b"><path d="M 1.378906 9.960938 L 97.320312 -5.988281 L 101.84375 21.21875 L 5.902344 37.167969 Z M 1.378906 9.960938 "/></clipPath><clipPath id="d50502872a"><path d="M 18 19 L 19 19 L 19 21 L 18 21 Z M 18 19 "/></clipPath><clipPath id="5d4e38b011"><path d="M 1.378906 9.960938 L 97.320312 -5.988281 L 101.84375 21.21875 L 5.902344 37.167969 Z M 1.378906 9.960938 "/></clipPath><clipPath id="64c88d3ba8"><path d="M 1.378906 9.960938 L 97.320312 -5.988281 L 101.84375 21.21875 L 5.902344 37.167969 Z M 1.378906 9.960938 "/></clipPath></defs><g id="98fb657edc"><g clip-rule="nonzero" clip-path="url(#54a14c1159)"><g clip-rule="nonzero" clip-path="url(#9e57acc580)"><g clip-rule="nonzero" clip-path="url(#5b8880246b)"><path style=" stroke:none;fill-rule:nonzero;fill:#ffb91e;fill-opacity:1;" d="M 3.035156 10.496094 C 2.996094 10.574219 3.003906 10.648438 3.046875 10.722656 C 2.894531 10.972656 2.425781 10.875 2.417969 11.292969 C 1.878906 12.042969 2.230469 12.660156 2.722656 13.246094 C 4.105469 14.886719 5.726562 16.265625 7.433594 17.546875 C 13.546875 22.136719 20.335938 25.234375 27.742188 27.160156 C 40.675781 30.523438 53.226562 29.199219 65.53125 24.460938 C 71.238281 22.261719 76.453125 19.113281 81.519531 15.71875 C 84.5 13.722656 87.347656 11.554688 90.25 9.457031 C 90.320312 9.335938 90.386719 9.214844 90.460938 9.09375 C 90.613281 9.058594 90.78125 8.976562 90.917969 9.011719 C 90.917969 9.011719 90.917969 9.011719 90.921875 9.015625 C 91.027344 9.046875 90.984375 9.199219 90.878906 9.273438 C 90.472656 10.621094 89.792969 11.835938 89.050781 13.011719 C 88.542969 13.820312 88.109375 14.640625 87.933594 15.582031 C 86.824219 17.308594 87.046875 18.925781 88.488281 20.125 C 92.011719 18.046875 93.816406 14.675781 95.367188 11.101562 C 95.945312 9.773438 96.609375 8.484375 97.257812 7.1875 C 98.804688 4.082031 98.40625 4.445312 96.871094 2.078125 C 96.527344 1.546875 96.066406 1.105469 95.5625 0.714844 C 95.378906 0.570312 95.195312 0.453125 94.949219 0.496094 C 94.523438 -0.0898438 93.925781 0.00390625 93.347656 0.121094 C 91.628906 0.472656 89.917969 0.84375 88.199219 1.210938 C 87.804688 1.074219 87.4375 1.195312 87.074219 1.335938 C 86.683594 1.183594 86.316406 1.3125 85.945312 1.425781 C 85.6875 1.269531 85.414062 1.390625 85.148438 1.398438 C 81.554688 1.488281 78.003906 1.171875 74.511719 0.253906 C 74.25 0.183594 73.984375 0.136719 73.71875 0.078125 C 73.402344 0.0078125 73.046875 -0.078125 72.859375 0.238281 C 72.714844 0.480469 72.828125 0.851562 73.011719 1 C 73.832031 1.660156 74.113281 2.710938 74.847656 3.417969 C 75.171875 3.730469 75.597656 3.886719 76.035156 4.035156 C 79.402344 5.210938 82.886719 5.757812 86.433594 5.949219 C 86.75 5.964844 87.074219 5.933594 87.378906 6.011719 C 87.730469 6.109375 87.683594 6.398438 87.558594 6.671875 C 87.199219 6.6875 86.96875 6.871094 86.855469 7.210938 C 86.53125 7.289062 86.21875 7.390625 86.109375 7.765625 C 86.023438 7.738281 85.972656 7.773438 85.960938 7.863281 C 85.648438 7.929688 85.367188 8.039062 85.25 8.378906 C 85.046875 8.46875 84.824219 8.535156 84.640625 8.660156 C 82.625 10.027344 80.628906 11.421875 78.597656 12.765625 C 76.753906 13.984375 74.871094 15.144531 73.007812 16.328125 C 72.476562 16.578125 71.9375 16.8125 71.421875 17.082031 C 66.371094 19.699219 61.085938 21.667969 55.519531 22.84375 C 53.527344 23.261719 51.53125 23.621094 49.535156 24.003906 C 49.121094 23.851562 48.742188 24.003906 48.363281 24.148438 C 47.96875 23.992188 47.605469 24.128906 47.242188 24.261719 C 46.878906 24.089844 46.539062 24.246094 46.191406 24.339844 C 45.960938 24.203125 45.738281 24.25 45.523438 24.371094 C 45.433594 24.328125 45.355469 24.335938 45.285156 24.402344 C 45.027344 24.257812 44.753906 24.367188 44.492188 24.367188 C 43.191406 24.359375 41.898438 24.585938 40.597656 24.417969 C 40.503906 24.539062 40.144531 24.65625 40.625 24.769531 C 40.945312 24.847656 40.976562 24.933594 40.90625 25.019531 C 40.847656 25.097656 40.710938 25.175781 40.613281 25.246094 C 36.507812 25.09375 32.46875 24.453125 28.472656 23.542969 C 28.109375 23.425781 27.742188 23.308594 27.378906 23.1875 C 25.210938 22.480469 23.035156 21.773438 20.867188 21.066406 C 20.816406 20.988281 20.75 20.941406 20.671875 20.921875 C 20.621094 20.90625 20.5625 20.90625 20.503906 20.914062 C 20.417969 20.789062 20.296875 20.742188 20.148438 20.769531 C 20.0625 20.640625 19.941406 20.59375 19.792969 20.625 C 19.710938 20.488281 19.589844 20.445312 19.433594 20.476562 C 19.351562 20.339844 19.234375 20.289062 19.082031 20.324219 C 19.003906 20.183594 18.882812 20.132812 18.730469 20.171875 L 18.726562 20.167969 C 18.652344 20.03125 18.535156 19.976562 18.382812 20.011719 L 18.375 20.011719 C 18.265625 19.953125 18.152344 19.898438 18.035156 19.851562 L 18.023438 19.847656 C 17.949219 19.710938 17.835938 19.65625 17.683594 19.6875 L 17.671875 19.683594 C 17.597656 19.546875 17.484375 19.492188 17.332031 19.523438 L 17.320312 19.519531 C 17.320312 19.519531 17.316406 19.515625 17.316406 19.515625 C 17.316406 19.515625 17.320312 19.519531 17.320312 19.519531 C 17.246094 19.375 17.132812 19.324219 16.976562 19.355469 L 16.96875 19.351562 C 16.898438 19.210938 16.785156 19.15625 16.628906 19.191406 L 16.625 19.1875 C 16.550781 19.046875 16.433594 18.988281 16.28125 19.019531 C 15.246094 18.433594 14.21875 17.851562 13.1875 17.265625 C 12.554688 17.128906 12.066406 16.71875 11.542969 16.386719 C 11.546875 16.3125 11.570312 16.25 11.601562 16.195312 C 11.648438 16.105469 11.71875 16.039062 11.820312 15.992188 C 11.449219 15.699219 11.101562 15.375 10.617188 15.269531 C 10.46875 15.25 10.328125 15.210938 10.207031 15.117188 C 10.34375 15.167969 10.480469 15.21875 10.617188 15.269531 C 10.519531 15.152344 10.410156 15.054688 10.25 15.105469 C 10.167969 14.882812 10 14.765625 9.773438 14.71875 C 9.722656 14.574219 9.628906 14.492188 9.46875 14.511719 C 9.378906 14.382812 9.277344 14.285156 9.105469 14.296875 C 9.074219 14.222656 9.023438 14.171875 8.941406 14.15625 C 8.628906 13.804688 8.265625 13.539062 7.832031 13.355469 C 7.601562 13.121094 7.375 12.878906 7.042969 12.785156 C 6.949219 12.582031 6.757812 12.496094 6.574219 12.398438 C 5.660156 11.46875 4.582031 10.714844 3.8125 9.5625 C 3.5625 9.980469 3.035156 10.003906 3.035156 10.496094 Z M 86.050781 8.117188 C 86.046875 8.117188 86.046875 8.117188 86.042969 8.117188 C 86.046875 8.121094 86.050781 8.121094 86.050781 8.121094 C 86.046875 8.121094 86.042969 8.117188 86.042969 8.117188 C 86.042969 8.113281 86.042969 8.109375 86.039062 8.109375 C 86.046875 8.109375 86.046875 8.113281 86.050781 8.117188 Z M 16.714844 20.0625 C 16.742188 20.082031 16.765625 20.097656 16.789062 20.117188 C 16.78125 20.113281 16.773438 20.113281 16.765625 20.109375 C 16.742188 20.097656 16.71875 20.089844 16.695312 20.074219 C 16.699219 20.074219 16.707031 20.070312 16.714844 20.0625 Z M 20.847656 21.070312 C 20.847656 21.074219 20.84375 21.074219 20.84375 21.078125 C 20.839844 21.085938 20.835938 21.097656 20.832031 21.105469 L 20.808594 21.136719 L 20.84375 21.074219 C 20.84375 21.070312 20.839844 21.070312 20.839844 21.066406 C 20.839844 21.070312 20.84375 21.070312 20.847656 21.070312 Z M 16.59375 20.136719 C 16.625 20.113281 16.660156 20.09375 16.6875 20.078125 C 16.710938 20.089844 16.738281 20.101562 16.761719 20.109375 C 16.707031 20.09375 16.648438 20.101562 16.59375 20.136719 Z M 16.914062 20.191406 C 16.945312 20.203125 16.972656 20.21875 16.996094 20.234375 C 16.996094 20.234375 17 20.234375 17 20.238281 C 16.972656 20.222656 16.945312 20.203125 16.914062 20.191406 Z M 4.101562 12.71875 C 4.097656 12.71875 4.09375 12.714844 4.089844 12.714844 C 4.089844 12.714844 4.085938 12.714844 4.085938 12.714844 C 4.085938 12.710938 4.082031 12.707031 4.082031 12.703125 C 4.089844 12.707031 4.09375 12.710938 4.101562 12.71875 Z M 4.511719 13.128906 C 4.511719 13.136719 4.511719 13.140625 4.519531 13.144531 C 4.519531 13.136719 4.511719 13.132812 4.511719 13.128906 Z M 9.972656 15.128906 C 9.949219 15.144531 9.925781 15.164062 9.90625 15.1875 C 9.898438 15.171875 9.890625 15.152344 9.886719 15.136719 C 9.914062 15.136719 9.941406 15.128906 9.972656 15.128906 Z M 9.207031 14.449219 C 9.160156 14.429688 9.125 14.390625 9.097656 14.339844 C 9.097656 14.339844 9.097656 14.339844 9.101562 14.339844 C 9.132812 14.386719 9.164062 14.425781 9.207031 14.449219 Z M 9.207031 14.449219 "/></g></g></g><g clip-rule="nonzero" clip-path="url(#d50502872a)"><g clip-rule="nonzero" clip-path="url(#5d4e38b011)"><g clip-rule="nonzero" clip-path="url(#64c88d3ba8)"><path style=" stroke:none;fill-rule:nonzero;fill:#ffb91e;fill-opacity:1;" d="M 18.011719 19.847656 C 18.128906 19.902344 18.242188 19.953125 18.351562 20.007812 C 18.277344 19.867188 18.164062 19.816406 18.011719 19.847656 Z M 18.011719 19.847656 "/></g></g></g></g></svg>