<svg xmlns="http://www.w3.org/2000/svg" xmlns:xlink="http://www.w3.org/1999/xlink" width="395" zoomAndPan="magnify" viewBox="0 0 296.25 175.5" height="234" preserveAspectRatio="xMidYMid meet" version="1.2"><defs><clipPath id="a43087372f"><path d="M 0.046875 0 L 295.457031 0 L 295.457031 175 L 0.046875 175 Z M 0.046875 0 "/></clipPath><filter x="0%" y="0%" width="100%" filterUnits="objectBoundingBox" id="a080c0dfbd" height="100%"><feColorMatrix values="0 0 0 0 1 0 0 0 0 1 0 0 0 0 1 0 0 0 1 0" type="matrix" in="SourceGraphic"/></filter><clipPath id="dd137682a8"><path d="M 0.75 0.394531 L 295 0.394531 L 295 174.394531 L 0.75 174.394531 Z M 0.75 0.394531 "/></clipPath><clipPath id="a2797cb53e"><rect x="0" width="296" y="0" height="175"/></clipPath></defs><g id="52c8b8b61a"><g clip-rule="nonzero" clip-path="url(#a43087372f)"><g mask="url(#f126b3ba03)" transform="matrix(1,0,0,1,0,0)"><g clip-path="url(#a2797cb53e)"><g clip-rule="nonzero" clip-path="url(#dd137682a8)"><path style=" stroke:none;fill-rule:nonzero;fill:#0b261f;fill-opacity:1;" d="M 294.757812 28.390625 L 294.757812 5.433594 C 294.757812 5.105469 294.726562 4.777344 294.664062 4.449219 C 294.601562 4.125 294.507812 3.808594 294.378906 3.503906 C 294.253906 3.195312 294.097656 2.90625 293.914062 2.628906 C 293.730469 2.355469 293.523438 2.101562 293.289062 1.867188 C 293.054688 1.632812 292.800781 1.421875 292.523438 1.238281 C 292.25 1.054688 291.957031 0.898438 291.652344 0.773438 C 291.34375 0.648438 291.027344 0.554688 290.703125 0.488281 C 290.378906 0.425781 290.050781 0.394531 289.71875 0.394531 L 5.875 0.394531 C 5.542969 0.394531 5.214844 0.425781 4.890625 0.488281 C 4.566406 0.554688 4.25 0.648438 3.945312 0.773438 C 3.636719 0.898438 3.347656 1.054688 3.070312 1.238281 C 2.796875 1.421875 2.539062 1.632812 2.304688 1.867188 C 2.070312 2.101562 1.863281 2.355469 1.679688 2.628906 C 1.496094 2.90625 1.339844 3.195312 1.214844 3.503906 C 1.089844 3.808594 0.992188 4.125 0.929688 4.449219 C 0.867188 4.777344 0.835938 5.105469 0.835938 5.433594 L 0.835938 28.390625 C 0.835938 30.792969 0.894531 33.199219 1.011719 35.601562 C 1.132812 38.003906 1.308594 40.398438 1.542969 42.792969 C 1.78125 45.1875 2.074219 47.574219 2.425781 49.953125 C 2.78125 52.332031 3.191406 54.699219 3.660156 57.058594 C 4.128906 59.417969 4.65625 61.765625 5.242188 64.097656 C 5.824219 66.429688 6.464844 68.746094 7.164062 71.050781 C 7.863281 73.351562 8.617188 75.632812 9.425781 77.898438 C 10.238281 80.164062 11.101562 82.40625 12.023438 84.628906 C 12.945312 86.851562 13.917969 89.046875 14.945312 91.222656 C 15.976562 93.398438 17.054688 95.542969 18.1875 97.664062 C 19.324219 99.785156 20.507812 101.878906 21.746094 103.941406 C 22.980469 106.003906 24.269531 108.035156 25.605469 110.035156 C 26.941406 112.035156 28.324219 114 29.757812 115.933594 C 31.191406 117.863281 32.667969 119.761719 34.195312 121.621094 C 35.722656 123.480469 37.292969 125.300781 38.90625 127.082031 C 40.523438 128.863281 42.179688 130.605469 43.878906 132.304688 C 45.582031 134.007812 47.324219 135.664062 49.105469 137.28125 C 50.886719 138.894531 52.707031 140.464844 54.566406 141.992188 C 56.425781 143.515625 58.320312 144.996094 60.253906 146.429688 C 62.183594 147.863281 64.152344 149.246094 66.148438 150.582031 C 68.148438 151.917969 70.179688 153.203125 72.246094 154.441406 C 74.308594 155.679688 76.398438 156.863281 78.519531 157.996094 C 80.640625 159.128906 82.789062 160.210938 84.964844 161.238281 C 87.136719 162.269531 89.335938 163.242188 91.558594 164.164062 C 93.78125 165.082031 96.023438 165.949219 98.289062 166.757812 C 100.550781 167.570312 102.835938 168.324219 105.136719 169.023438 C 107.4375 169.71875 109.753906 170.359375 112.089844 170.945312 C 114.421875 171.53125 116.769531 172.054688 119.125 172.527344 C 121.484375 172.996094 123.855469 173.40625 126.234375 173.757812 C 128.613281 174.113281 131 174.40625 133.394531 174.640625 C 135.785156 174.878906 138.183594 175.054688 140.585938 175.171875 C 142.988281 175.289062 145.390625 175.347656 147.796875 175.347656 C 150.203125 175.347656 152.605469 175.289062 155.007812 175.171875 C 157.410156 175.054688 159.808594 174.878906 162.203125 174.640625 C 164.59375 174.40625 166.980469 174.113281 169.359375 173.757812 C 171.738281 173.40625 174.109375 172.996094 176.46875 172.527344 C 178.828125 172.054688 181.171875 171.53125 183.507812 170.945312 C 185.839844 170.359375 188.15625 169.71875 190.457031 169.023438 C 192.757812 168.324219 195.042969 167.570312 197.308594 166.757812 C 199.570312 165.949219 201.816406 165.082031 204.035156 164.164062 C 206.257812 163.242188 208.457031 162.269531 210.632812 161.238281 C 212.804688 160.210938 214.953125 159.128906 217.074219 157.996094 C 219.195312 156.863281 221.289062 155.679688 223.351562 154.441406 C 225.414062 153.203125 227.445312 151.917969 229.445312 150.582031 C 231.445312 149.246094 233.410156 147.863281 235.339844 146.429688 C 237.273438 144.996094 239.167969 143.515625 241.027344 141.992188 C 242.886719 140.464844 244.707031 138.894531 246.488281 137.28125 C 248.273438 135.664062 250.011719 134.007812 251.714844 132.304688 C 253.414062 130.605469 255.074219 128.863281 256.6875 127.082031 C 258.304688 125.300781 259.875 123.480469 261.398438 121.621094 C 262.925781 119.761719 264.40625 117.863281 265.835938 115.933594 C 267.269531 114 268.65625 112.035156 269.992188 110.035156 C 271.328125 108.035156 272.613281 106.003906 273.851562 103.941406 C 275.085938 101.878906 276.269531 99.785156 277.40625 97.664062 C 278.539062 95.542969 279.621094 93.398438 280.648438 91.222656 C 281.675781 89.046875 282.652344 86.851562 283.570312 84.628906 C 284.492188 82.40625 285.355469 80.164062 286.167969 77.898438 C 286.976562 75.632812 287.730469 73.351562 288.429688 71.050781 C 289.128906 68.746094 289.769531 66.429688 290.355469 64.097656 C 290.9375 61.765625 291.464844 59.417969 291.933594 57.058594 C 292.402344 54.699219 292.816406 52.332031 293.167969 49.953125 C 293.519531 47.574219 293.816406 45.1875 294.050781 42.792969 C 294.285156 40.398438 294.464844 38.003906 294.582031 35.601562 C 294.699219 33.199219 294.757812 30.792969 294.757812 28.390625 Z M 294.757812 28.390625 "/></g></g><mask id="f126b3ba03"><g filter="url(#a080c0dfbd)"><rect x="0" width="296.25" y="0" height="175.5" style="fill:#000000;fill-opacity:0.66;stroke:none;"/></g></mask></g></g></g></svg>